<svg width="57" height="64" viewBox="0 0 57 64" fill="none" xmlns="http://www.w3.org/2000/svg">
<g filter="url(#filter0_d)">
<rect x="12" y="8" width="40" height="40" rx="20" fill="black" fill-opacity="0.8"/>
<path fill-rule="evenodd" clip-rule="evenodd" d="M27.4165 23.5473C25.9589 24.6737 24.6782 26.2235 23.7777 27.8887L23.118 27.532L23.7781 27.8881C23.741 27.9568 23.741 28.042 23.7779 28.1107C24.6784 29.7763 25.9591 31.3261 27.4165 32.4526C28.8782 33.5823 30.4684 34.25 32 34.25C33.5316 34.25 35.1218 33.5823 36.5835 32.4527C38.0411 31.3263 39.3218 29.7765 40.2223 28.1113C40.2589 28.0428 40.2589 27.9579 40.2221 27.8895C39.3217 26.2238 38.041 24.6739 36.5835 23.5474C35.1218 22.4177 33.5316 21.75 32 21.75C30.4684 21.75 28.8781 22.4177 27.4165 23.5473ZM26.4993 22.3604C28.1318 21.0988 30.0366 20.25 32 20.25C33.9634 20.25 35.8682 21.0988 37.5008 22.3606C39.1375 23.6256 40.5502 25.3421 41.5418 27.1763L41.5421 27.1769C41.819 27.6902 41.819 28.3108 41.5421 28.8241L41.5417 28.8247C40.5502 30.6585 39.1374 32.3747 37.5007 33.6396C35.8681 34.9012 33.9634 35.75 32 35.75C30.0366 35.75 28.1318 34.9012 26.4992 33.6394C24.8625 32.3744 23.4498 30.6579 22.4582 28.8237L22.4579 28.8231C22.181 28.3098 22.181 27.6892 22.4579 27.1759L22.4583 27.1753C23.4498 25.3415 24.8626 23.6253 26.4993 22.3604ZM33.6971 26.3029C32.7598 25.3657 31.2402 25.3657 30.303 26.3029C29.3657 27.2402 29.3657 28.7598 30.303 29.6971C31.2402 30.6343 32.7598 30.6343 33.6971 29.6971C34.6343 28.7598 34.6343 27.2402 33.6971 26.3029ZM29.2423 25.2423C30.7653 23.7192 33.2347 23.7192 34.7577 25.2423C36.2808 26.7653 36.2808 29.2347 34.7577 30.7577C33.2347 32.2808 30.7653 32.2808 29.2423 30.7577C27.7193 29.2347 27.7193 26.7653 29.2423 25.2423Z" fill="white"/>
</g>
<defs>
<filter id="filter0_d" x="0" y="0" width="64" height="64" filterUnits="userSpaceOnUse" color-interpolation-filters="sRGB">
<feFlood flood-opacity="0" result="BackgroundImageFix"/>
<feColorMatrix in="SourceAlpha" type="matrix" values="0 0 0 0 0 0 0 0 0 0 0 0 0 0 0 0 0 0 127 0"/>
<feOffset dy="4"/>
<feGaussianBlur stdDeviation="6"/>
<feColorMatrix type="matrix" values="0 0 0 0 0 0 0 0 0 0 0 0 0 0 0 0 0 0 0.25 0"/>
<feBlend mode="normal" in2="BackgroundImageFix" result="effect1_dropShadow"/>
<feBlend mode="normal" in="SourceGraphic" in2="effect1_dropShadow" result="shape"/>
</filter>
</defs>
</svg>
