<svg width="39" height="34" viewBox="0 0 39 34" fill="none" xmlns="http://www.w3.org/2000/svg">
<path d="M31.4596 9.50577V5.11862C31.4596 2.29677 29.2179 0 26.4083 0H12.6369C9.82727 0 7.53958 2.29595 7.53958 5.11862V9.50494H2.21781C0.993002 9.50494 0 10.5022 0 11.7324V16.5744C0 17.8054 0.993002 18.8018 2.21781 18.8018H2.87872L5.30204 32.1722C5.49357 33.2306 6.41259 34 7.48369 34H31.5623C32.6343 34 33.5516 33.2306 33.744 32.1713L36.1657 18.8018H36.7822C38.007 18.8018 39 17.8054 39 16.5744V11.7324C39 10.5022 38.007 9.50494 36.7822 9.50494L31.4596 9.50577ZM11.648 5.11862C11.648 4.58034 12.101 4.12627 12.6369 4.12627H26.4107C26.9459 4.12627 27.3528 4.58034 27.3528 5.11862V9.50494H11.648V5.11862ZM14.7158 26.0397C14.7158 26.8959 14.0344 27.5893 13.1819 27.5893C12.3303 27.5893 11.648 26.8959 11.648 26.0397V17.5329C11.648 16.6768 12.3303 15.9841 13.1819 15.9841C14.0352 15.9841 14.7158 16.6784 14.7158 17.5329V26.0397ZM21.0602 26.0397C21.0602 26.8959 20.3779 27.5893 19.5263 27.5893C18.6747 27.5893 17.9916 26.8959 17.9916 26.0397V17.5329C17.9916 16.6768 18.6747 15.9841 19.5263 15.9841C20.3787 15.9841 21.0602 16.6784 21.0602 17.5329V26.0397ZM27.4046 26.0397C27.4046 26.8959 26.7223 27.5893 25.8715 27.5893C25.0191 27.5893 24.3368 26.8959 24.3368 26.0397V17.5329C24.3368 16.6768 25.0191 15.9841 25.8715 15.9841C26.7223 15.9841 27.4046 16.6784 27.4046 17.5329V26.0397Z" fill="#020202"/>
</svg>
