<svg width="48" height="48" viewBox="0 0 48 48" fill="none" xmlns="http://www.w3.org/2000/svg">
<rect width="48" height="48" rx="24" fill="#E0E0E0"/>
<path fill-rule="evenodd" clip-rule="evenodd" d="M12.7929 33.7962C12.4024 34.1867 12.4024 34.8199 12.7929 35.2104C13.1834 35.6009 13.8166 35.6009 14.2071 35.2104L24.0016 25.4159L33.7962 35.2104C34.1867 35.6009 34.8199 35.6009 35.2104 35.2104C35.6009 34.8199 35.6009 34.1867 35.2104 33.7962L25.4159 24.0016L35.2104 14.2071C35.6009 13.8166 35.6009 13.1834 35.2104 12.7929C34.8199 12.4024 34.1867 12.4024 33.7962 12.7929L24.0016 22.5874L14.2071 12.7929C13.8166 12.4024 13.1834 12.4024 12.7929 12.7929C12.4024 13.1834 12.4024 13.8166 12.7929 14.2071L22.5874 24.0016L12.7929 33.7962Z" fill="black"/>
</svg>
