<svg width="32" height="32" viewBox="0 0 32 32" fill="none" xmlns="http://www.w3.org/2000/svg">
<rect width="32" height="32" rx="6" fill="#F2EAFB"/>
<path d="M15.9975 12.8876C14.2837 12.8876 12.8851 14.2863 12.8851 16.0001C12.8851 17.7139 14.2837 19.1125 15.9975 19.1125C17.7113 19.1125 19.1099 17.7139 19.1099 16.0001C19.1099 14.2863 17.7113 12.8876 15.9975 12.8876ZM25.3323 16.0001C25.3323 14.7112 25.344 13.434 25.2716 12.1475C25.1992 10.6531 24.8583 9.32691 23.7656 8.23417C22.6706 7.13909 21.3467 6.80053 19.8524 6.72815C18.5635 6.65577 17.2864 6.66744 15.9998 6.66744C14.711 6.66744 13.4338 6.65577 12.1473 6.72815C10.653 6.80053 9.3268 7.14143 8.23408 8.23417C7.13902 9.32924 6.80047 10.6531 6.72809 12.1475C6.65571 13.4363 6.66738 14.7135 6.66738 16.0001C6.66738 17.2866 6.65571 18.5661 6.72809 19.8527C6.80047 21.347 7.14136 22.6733 8.23408 23.766C9.32913 24.8611 10.653 25.1996 12.1473 25.272C13.4362 25.3444 14.7133 25.3327 15.9998 25.3327C17.2887 25.3327 18.5659 25.3444 19.8524 25.272C21.3467 25.1996 22.6729 24.8587 23.7656 23.766C24.8607 22.6709 25.1992 21.347 25.2716 19.8527C25.3463 18.5661 25.3323 17.289 25.3323 16.0001ZM15.9975 20.789C13.3474 20.789 11.2087 18.6502 11.2087 16.0001C11.2087 13.35 13.3474 11.2112 15.9975 11.2112C18.6476 11.2112 20.7863 13.35 20.7863 16.0001C20.7863 18.6502 18.6476 20.789 15.9975 20.789ZM20.9825 12.1335C20.3637 12.1335 19.8641 11.6338 19.8641 11.015C19.8641 10.3963 20.3637 9.89662 20.9825 9.89662C21.6012 9.89662 22.1009 10.3963 22.1009 11.015C22.101 11.162 22.0722 11.3075 22.0161 11.4433C21.96 11.579 21.8776 11.7024 21.7737 11.8063C21.6698 11.9102 21.5464 11.9926 21.4107 12.0487C21.2749 12.1049 21.1294 12.1337 20.9825 12.1335Z" fill="#544266"/>
</svg>
