<svg width="32" height="33" viewBox="0 0 32 33" fill="none" xmlns="http://www.w3.org/2000/svg">
<rect y="0.713257" width="32" height="32" rx="6" fill="#2B2B2B"/>
<path d="M15.9976 13.6008C14.2838 13.6008 12.8852 14.9994 12.8852 16.7132C12.8852 18.427 14.2838 19.8257 15.9976 19.8257C17.7114 19.8257 19.11 18.427 19.11 16.7132C19.11 14.9994 17.7114 13.6008 15.9976 13.6008ZM25.3324 16.7132C25.3324 15.4243 25.344 14.1471 25.2717 12.8606C25.1993 11.3663 24.8584 10.04 23.7657 8.9473C22.6706 7.85223 21.3468 7.51367 19.8524 7.44128C18.5636 7.3689 17.2864 7.38058 15.9999 7.38058C14.7111 7.38058 13.4339 7.3689 12.1474 7.44128C10.6531 7.51367 9.32686 7.85456 8.23414 8.9473C7.13909 10.0424 6.80053 11.3663 6.72815 12.8606C6.65577 14.1495 6.66744 15.4267 6.66744 16.7132C6.66744 17.9998 6.65577 19.2793 6.72815 20.5658C6.80053 22.0602 7.14142 23.3864 8.23414 24.4791C9.32919 25.5742 10.6531 25.9128 12.1474 25.9851C13.4362 26.0575 14.7134 26.0459 15.9999 26.0459C17.2888 26.0459 18.5659 26.0575 19.8524 25.9851C21.3468 25.9128 22.673 25.5719 23.7657 24.4791C24.8607 23.3841 25.1993 22.0602 25.2717 20.5658C25.3464 19.2793 25.3324 18.0021 25.3324 16.7132ZM15.9976 21.5021C13.3475 21.5021 11.2088 19.3633 11.2088 16.7132C11.2088 14.0631 13.3475 11.9243 15.9976 11.9243C18.6476 11.9243 20.7864 14.0631 20.7864 16.7132C20.7864 19.3633 18.6476 21.5021 15.9976 21.5021ZM20.9825 12.8466C20.3638 12.8466 19.8641 12.3469 19.8641 11.7282C19.8641 11.1094 20.3638 10.6098 20.9825 10.6098C21.6013 10.6098 22.1009 11.1094 22.1009 11.7282C22.1011 11.8751 22.0723 12.0206 22.0162 12.1564C21.96 12.2922 21.8776 12.4155 21.7738 12.5194C21.6699 12.6233 21.5465 12.7057 21.4107 12.7618C21.275 12.818 21.1294 12.8468 20.9825 12.8466Z" fill="white"/>
</svg>
