<svg width="16" height="16" viewBox="0 0 16 16" fill="none" xmlns="http://www.w3.org/2000/svg">
<path d="M14.696 13.1974L14.6951 13.1965L10.3033 8.96479L10.303 8.96457L9.31144 8.02162L14.6951 2.84713C14.808 2.73855 14.9002 2.61747 14.9582 2.48359C15.0152 2.35205 15.0499 2.20844 15.0499 2.06369C15.0499 1.91203 15.0275 1.767 14.9575 1.63164C14.9011 1.50196 14.8214 1.37004 14.717 1.26971L14.717 1.26967L14.715 1.26795C14.6032 1.17118 14.4779 1.08321 14.3395 1.02776C14.2005 0.972088 14.0404 0.950488 13.8938 0.950488C13.744 0.950488 13.5956 0.983708 13.4493 1.0378L13.4493 1.03779L13.448 1.03829C13.3096 1.09373 13.1838 1.1819 13.0815 1.28024L6.88257 7.23837C6.77867 7.33823 6.69842 7.45974 6.64135 7.59139L6.64133 7.59138L6.64081 7.5927C6.58439 7.73368 6.54961 7.87694 6.54961 8.02182C6.54961 8.16657 6.58433 8.31017 6.64135 8.44172C6.69842 8.57337 6.77867 8.69487 6.88257 8.79473L13.0815 14.7529L13.0815 14.7529L13.0825 14.7538C13.3008 14.9526 13.5871 15.051 13.8828 15.051C14.1809 15.051 14.467 14.93 14.6732 14.7318C14.8903 14.5231 15.0059 14.258 15.0061 13.9704C15.0174 13.6821 14.9018 13.4062 14.696 13.1974Z" fill="#B3B3B3" stroke="#B3B3B3" stroke-width="0.1"/>
<path d="M1.14186 2.80402L1.14278 2.80492L5.5346 7.03667L5.53484 7.0369L6.52645 7.97984L1.14282 13.1543C1.02985 13.2629 0.937734 13.384 0.879695 13.5179C0.822669 13.6494 0.787952 13.793 0.787952 13.9378C0.787952 14.0894 0.810391 14.2345 0.880396 14.3698C0.936798 14.4995 1.01654 14.6314 1.12092 14.7317L1.12087 14.7318L1.12285 14.7335C1.23472 14.8303 1.35995 14.9183 1.4984 14.9737C1.63741 15.0294 1.79747 15.051 1.94412 15.051C2.09391 15.051 2.24226 15.0178 2.3886 14.9637L2.3886 14.9637L2.38985 14.9632C2.52829 14.9077 2.65406 14.8196 2.75638 14.7212L8.95532 8.7631C9.05922 8.66323 9.13947 8.54173 9.19654 8.41008L9.19656 8.41009L9.19709 8.40877C9.2535 8.26778 9.28828 8.12452 9.28828 7.97965C9.28828 7.8349 9.25356 7.69129 9.19654 7.55975C9.13947 7.4281 9.05922 7.3066 8.95532 7.20673L2.75638 1.2486L2.75639 1.24859L2.75539 1.24768C2.53706 1.04888 2.25082 0.950428 1.95508 0.950428C1.65701 0.950428 1.3709 1.0715 1.16473 1.26966C0.947542 1.4784 0.832028 1.74351 0.831762 2.03105C0.820518 2.31934 0.936078 2.59524 1.14186 2.80402Z" fill="#B3B3B3" stroke="#B3B3B3" stroke-width="0.1"/>
</svg>
