<svg width="11" height="14" viewBox="0 0 11 14" fill="none" xmlns="http://www.w3.org/2000/svg">
<path d="M6.66164 8.68179H0.013916V7.27554H6.66164C7.27528 7.27554 7.78238 7.169 8.18295 6.95593C8.58352 6.7386 8.88181 6.44457 9.07784 6.07383C9.27386 5.69883 9.37187 5.27269 9.37187 4.79542C9.37187 4.31815 9.27386 3.89414 9.07784 3.5234C8.88181 3.1484 8.58352 2.85437 8.18295 2.6413C7.78238 2.42397 7.27528 2.31531 6.66164 2.31531H3.67017V14H2.08494V0.909058H6.66164C7.63323 0.909058 8.43437 1.0859 9.06505 1.4396C9.69573 1.79329 10.1645 2.26417 10.4713 2.85224C10.7781 3.44031 10.9315 4.08804 10.9315 4.79542C10.9315 5.50281 10.7781 6.15054 10.4713 6.7386C10.1645 7.32667 9.69573 7.79755 9.06505 8.15125C8.43437 8.50494 7.63323 8.68179 6.66164 8.68179ZM6.55937 9.90906V11.3153H0.013916V9.90906H6.55937Z" fill="#181725"/>
</svg>
