<svg width="32" height="32" viewBox="0 0 32 32" fill="none" xmlns="http://www.w3.org/2000/svg">
<rect width="32" height="32" rx="6" fill="#2B2B2B"/>
<path d="M6.35326 15.643L10.9617 17.363L12.7454 23.0994C12.8595 23.4668 13.3088 23.6026 13.607 23.3588L16.1758 21.2647C16.4451 21.0453 16.8286 21.0344 17.11 21.2386L21.7432 24.6024C22.0622 24.8343 22.5141 24.6595 22.5941 24.274L25.9882 7.94797C26.0755 7.5269 25.6618 7.17563 25.2609 7.3307L6.34786 14.6268C5.88113 14.8068 5.88519 15.4676 6.35326 15.643ZM12.4579 16.4474L21.4645 10.9002C21.6263 10.8008 21.7929 11.0197 21.6539 11.1486L14.2209 18.058C13.9596 18.3012 13.7911 18.6266 13.7433 18.9799L13.4901 20.8563C13.4566 21.1068 13.1047 21.1317 13.0355 20.8892L12.0617 17.4676C11.9502 17.0773 12.1127 16.6604 12.4579 16.4474Z" fill="white"/>
</svg>
