<svg width="40" height="40" viewBox="0 0 40 40" fill="none" xmlns="http://www.w3.org/2000/svg">
<rect width="40" height="40" rx="20" fill="black"/>
<path fill-rule="evenodd" clip-rule="evenodd" d="M12.1894 15.8831C12.2507 14.9638 13.0142 14.25 13.9358 14.25H26.0638C26.9853 14.25 27.7488 14.9638 27.8101 15.8831L28.6061 27.8171C28.6061 27.8171 28.6061 27.8171 28.6061 27.8171C28.712 29.4041 27.4524 30.75 25.8618 30.75H14.1378C12.5471 30.75 11.2875 29.4042 11.3934 27.8171M11.3934 27.8171L12.1894 15.8831C12.1894 15.8831 12.1894 15.8831 12.1894 15.8831M26.0638 15.75H13.9358C13.8033 15.75 13.6948 15.8522 13.6861 15.9829L12.8901 27.9169C12.842 28.6378 13.4144 29.25 14.1378 29.25H25.8618C26.5851 29.25 27.1575 28.6378 27.1094 27.9169L26.3134 15.9829C26.3047 15.8522 26.1962 15.75 26.0638 15.75Z" fill="white"/>
<path fill-rule="evenodd" clip-rule="evenodd" d="M19.9998 10.75C18.757 10.75 17.7498 11.7572 17.7498 13C17.7498 13.4142 17.414 13.75 16.9998 13.75C16.5856 13.75 16.2498 13.4142 16.2498 13C16.2498 10.9288 17.9286 9.25 19.9998 9.25C22.071 9.25 23.7498 10.9288 23.7498 13C23.7498 13.4142 23.414 13.75 22.9998 13.75C22.5856 13.75 22.2498 13.4142 22.2498 13C22.2498 11.7572 21.2426 10.75 19.9998 10.75Z" fill="white"/>
<path fill-rule="evenodd" clip-rule="evenodd" d="M16.9998 12.25C17.414 12.25 17.7498 12.5858 17.7498 13V17C17.7498 17.4142 17.414 17.75 16.9998 17.75C16.5856 17.75 16.2498 17.4142 16.2498 17V13C16.2498 12.5858 16.5856 12.25 16.9998 12.25Z" fill="white"/>
<path fill-rule="evenodd" clip-rule="evenodd" d="M22.9998 12.25C23.414 12.25 23.7498 12.5858 23.7498 13L23.7498 17C23.7498 17.4142 23.414 17.75 22.9998 17.75C22.5856 17.75 22.2498 17.4142 22.2498 17L22.2498 13C22.2498 12.5858 22.5856 12.25 22.9998 12.25Z" fill="white"/>
<path d="M17 23H23M20 26L20 20" stroke="white" stroke-width="1.5" stroke-linecap="round"/>
</svg>
