<svg width="40" height="40" viewBox="0 0 40 40" fill="none" xmlns="http://www.w3.org/2000/svg">
<rect width="40" height="40" rx="20" fill="black"/>
<path fill-rule="evenodd" clip-rule="evenodd" d="M15.4162 15.5473C13.9587 16.6737 12.6779 18.2235 11.7775 19.8887L11.1178 19.532L11.7778 19.8881C11.7408 19.9568 11.7407 20.042 11.7777 20.1107C12.6781 21.7763 13.9588 23.3261 15.4163 24.4526C16.8779 25.5823 18.4681 26.25 19.9998 26.25C21.5314 26.25 23.1216 25.5823 24.5833 24.4527C26.0408 23.3263 27.3216 21.7765 28.222 20.1113C28.2587 20.0428 28.2587 19.9579 28.2219 19.8895C27.3214 18.2238 26.0407 16.6739 24.5832 15.5474C23.1216 14.4177 21.5314 13.75 19.9998 13.75C18.4681 13.75 16.8779 14.4177 15.4162 15.5473ZM14.499 14.3604C16.1316 13.0988 18.0364 12.25 19.9998 12.25C21.9631 12.25 23.8679 13.0988 25.5005 14.3606C27.1372 15.6256 28.55 17.3421 29.5415 19.1763L29.5418 19.1769C29.8187 19.6902 29.8187 20.3108 29.5418 20.8241L29.5415 20.8247C28.5499 22.6585 27.1372 24.3747 25.5005 25.6396C23.8679 26.9012 21.9631 27.75 19.9998 27.75C18.0364 27.75 16.1316 26.9012 14.499 25.6394C12.8623 24.3744 11.4495 22.6579 10.458 20.8237L10.4577 20.8231C10.1808 20.3098 10.1808 19.6892 10.4577 19.1759L10.458 19.1753C11.4496 17.3415 12.8623 15.6253 14.499 14.3604ZM21.6968 18.3029C20.7596 17.3657 19.24 17.3657 18.3027 18.3029C17.3655 19.2402 17.3655 20.7598 18.3027 21.6971C19.24 22.6343 20.7596 22.6343 21.6968 21.6971C22.6341 20.7598 22.6341 19.2402 21.6968 18.3029ZM17.2421 17.2423C18.7651 15.7192 21.2344 15.7192 22.7575 17.2423C24.2805 18.7653 24.2805 21.2347 22.7575 22.7577C21.2344 24.2808 18.7651 24.2808 17.2421 22.7577C15.719 21.2347 15.719 18.7653 17.2421 17.2423Z" fill="white"/>
</svg>
