<svg width="25" height="25" viewBox="0 0 25 25" fill="none" xmlns="http://www.w3.org/2000/svg">
<path d="M18.4987 14.3654C18.45 14.342 16.6274 13.4445 16.3036 13.328C16.1713 13.2805 16.0297 13.2341 15.879 13.2341C15.6329 13.2341 15.4262 13.3568 15.2652 13.5977C15.0831 13.8683 14.532 14.5125 14.3617 14.705C14.3394 14.7304 14.3091 14.7607 14.2909 14.7607C14.2746 14.7607 13.9925 14.6446 13.9071 14.6075C11.952 13.7582 10.468 11.7159 10.2645 11.3715C10.2355 11.322 10.2342 11.2995 10.234 11.2995C10.2411 11.2733 10.3069 11.2074 10.3408 11.1734C10.4401 11.0752 10.5476 10.9457 10.6517 10.8205C10.701 10.7612 10.7503 10.7017 10.7988 10.6457C10.9497 10.4701 11.017 10.3337 11.0949 10.1758L11.1357 10.0937C11.326 9.7157 11.1635 9.3967 11.1109 9.2937C11.0678 9.2075 10.2983 7.35019 10.2165 7.15506C10.0197 6.6842 9.75973 6.46497 9.39845 6.46497C9.36492 6.46497 9.39845 6.46497 9.25786 6.47089C9.08668 6.47812 8.15445 6.60084 7.74228 6.86066C7.30518 7.13623 6.56573 8.01464 6.56573 9.55945C6.56573 10.9498 7.44804 12.2625 7.82686 12.7618C7.83627 12.7744 7.85356 12.7999 7.87864 12.8366C9.32937 14.9553 11.1379 16.5254 12.9713 17.2578C14.7363 17.9629 15.5721 18.0443 16.0472 18.0443C16.0473 18.0443 16.0473 18.0443 16.0473 18.0443C16.247 18.0443 16.4068 18.0287 16.5478 18.0148L16.6372 18.0063C17.247 17.9522 18.5869 17.2579 18.8917 16.4109C19.1318 15.7438 19.1951 15.0149 19.0354 14.7504C18.926 14.5705 18.7374 14.48 18.4987 14.3654Z" fill="white"/>
<path d="M12.7221 0C5.95136 0 0.44292 5.46705 0.44292 12.1869C0.44292 14.3604 1.02458 16.4879 2.12644 18.3499L0.0174331 24.5711C-0.0218526 24.6871 0.00736815 24.8153 0.0931636 24.9027C0.155095 24.9659 0.239105 25 0.324901 25C0.357774 25 0.390891 24.995 0.423196 24.9847L6.91021 22.9234C8.68537 23.8718 10.6917 24.3725 12.7222 24.3725C19.4924 24.3726 25.0002 18.9061 25.0002 12.1869C25.0002 5.46705 19.4924 0 12.7221 0ZM12.7221 21.8339C10.8115 21.8339 8.96094 21.2822 7.37019 20.2384C7.3167 20.2032 7.25461 20.1852 7.19211 20.1852C7.15907 20.1852 7.12596 20.1903 7.09373 20.2005L3.84414 21.2334L4.89316 18.1386C4.92709 18.0384 4.91013 17.9279 4.84763 17.8425C3.63627 16.1873 2.99592 14.2317 2.99592 12.1869C2.99592 6.86688 7.35907 2.53864 12.7221 2.53864C18.0844 2.53864 22.4471 6.86688 22.4471 12.1869C22.4471 17.5063 18.0846 21.8339 12.7221 21.8339Z" fill="white"/>
</svg>
